<svg width="234" height="229" xmlns="http://www.w3.org/2000/svg" xmlns:xlink="http://www.w3.org/1999/xlink" xml:space="preserve" overflow="hidden"><g transform="translate(-1466 -4757)"><g><path d="M1472.5 4799.17C1472.5 4778.92 1488.92 4762.5 1509.17 4762.5L1655.83 4762.5C1676.08 4762.5 1692.5 4778.92 1692.5 4799.17L1692.5 4945.83C1692.5 4966.08 1676.08 4982.5 1655.83 4982.5L1509.17 4982.5C1488.92 4982.5 1472.5 4966.08 1472.5 4945.83Z" stroke="#042433" stroke-width="6.875" stroke-linecap="butt" stroke-linejoin="miter" stroke-miterlimit="8" stroke-opacity="1" fill="#79A7E4" fill-rule="evenodd" fill-opacity="1"/><g><g><g><path d="M1515.07 4865.64C1514.87 4862.53 1514.96 4859.41 1515.35 4856.33 1515.93 4856.33 1526.24 4856.6 1526.24 4856.33 1526.24 4856.05 1525.52 4841.72 1526.83 4840.99 1532.04 4840.21 1537.3 4839.73 1542.57 4839.55L1542.57 4830.96C1542.57 4830.96 1529.27 4831.54 1529.1 4830.37 1528.92 4829.2 1526.97 4811.74 1528.24 4811.33 1529.51 4810.92 1548.86 4810.06 1548.86 4811.6 1548.86 4813.15 1549.45 4827.35 1549.45 4827.35 1549.45 4827.35 1563.2 4826.21 1563.78 4827.35 1564.37 4828.48 1564.06 4838.97 1565.5 4839.1 1566.94 4839.24 1589.29 4840.1 1589.29 4839.1 1589.16 4835.03 1589.4 4830.96 1590.01 4826.93 1590.73 4826.35 1606.92 4826.21 1606.92 4826.21 1606.66 4821.63 1606.76 4817.03 1607.2 4812.46 1607.92 4811.47 1629.27 4811.33 1629.27 4812.46 1629.17 4818.45 1628.74 4824.43 1627.99 4830.37 1627.41 4830.37 1611.08 4830.65 1611.08 4830.65L1611.08 4834.53C1611.08 4834.53 1637 4835.25 1637.31 4836.52 1637.62 4837.8 1636.59 4855.57 1637.31 4855.57 1638.03 4855.57 1650.2 4855.57 1650.34 4856.88 1650.47 4858.18 1650.34 4868.91 1650.34 4868.91 1650.34 4868.91 1664.09 4869.18 1664.53 4870.76 1664.98 4872.34 1663.54 4916.17 1661.96 4916.89 1656.51 4917.51 1651.01 4917.31 1645.63 4916.31 1645.22 4915.45 1645.63 4887.09 1644.91 4886.82 1644.18 4886.54 1636.17 4886.82 1636.17 4886.82 1636.17 4886.82 1637.03 4917.75 1635.9 4918.89 1634.77 4920.02 1617.44 4919.75 1617.44 4919.75 1617.44 4919.75 1618.75 4931.64 1617.89 4931.92 1617.03 4932.19 1583.24 4933.91 1583.24 4932.64 1583.24 4931.37 1582.96 4915.45 1584.23 4914.73 1585.51 4914.01 1609.16 4914.01 1609.02 4913.28 1608.88 4912.56 1609.02 4906.99 1608.61 4906.86 1608.19 4906.72 1554.5 4907.61 1554.5 4908.47 1554.2 4910.51 1554.2 4912.58 1554.5 4914.62 1554.95 4914.62 1579.15 4915.21 1579.28 4915.62 1579.71 4921.34 1579.71 4927.09 1579.28 4932.81 1568.89 4933.38 1558.47 4933.38 1548.07 4932.81 1546.94 4932.09 1546.49 4918.78 1546.49 4918.78 1546.49 4918.78 1527.45 4916.79 1527.31 4915.79 1527.17 4914.8 1527.31 4887.16 1526.72 4886.71 1524.84 4886.27 1522.87 4886.27 1520.98 4886.71 1520.98 4887.16 1521.57 4914.21 1520.98 4914.49 1520.4 4914.76 1500.36 4916.79 1500.36 4914.49 1500.36 4912.18 1498.92 4868.56 1500.19 4867.67 1505.08 4866.58 1510.06 4865.91 1515.07 4865.64Z" fill="#1D1D1B" fill-rule="nonzero" fill-opacity="1"/><path d="M1506.79 4873.1C1509.57 4872.48 1512.4 4872.11 1515.24 4872 1515.24 4872 1515.69 4909.81 1515.24 4909.81 1514.8 4909.81 1507.1 4910.95 1506.79 4909.81 1506.48 4908.68 1506.37 4873.82 1506.79 4873.1Z" fill="#C8DB89" fill-rule="nonzero" fill-opacity="1"/><path d="M1522.12 4861.69C1523.36 4861.18 1524.76 4861.18 1526 4861.69 1526 4862.13 1526.28 4880.87 1526 4880.87 1525.73 4880.87 1522.29 4881.59 1522.15 4880.87 1522.02 4880.15 1521.67 4862.07 1522.12 4861.69Z" fill="#C8DB89" fill-rule="nonzero" fill-opacity="1"/><path d="M1534.7 4816.24C1535.32 4815.83 1542.43 4815.83 1542.71 4816.69 1543.14 4819.45 1543.14 4822.25 1542.71 4825.01 1540.04 4825.15 1537.37 4825.15 1534.7 4825.01 1534.07 4822.12 1534.07 4819.13 1534.7 4816.24Z" fill="#C8DB89" fill-rule="nonzero" fill-opacity="1"/><path d="M1613.21 4817C1616.18 4816.78 1619.15 4816.93 1622.08 4817.45 1622.28 4819.98 1622.19 4822.53 1621.81 4825.04 1618.95 4825.33 1616.07 4825.33 1613.21 4825.04 1613.06 4822.36 1613.06 4819.68 1613.21 4817Z" fill="#C8DB89" fill-rule="nonzero" fill-opacity="1"/><path d="M1548.45 4832.71C1548.45 4832.71 1558.18 4831.58 1558.18 4832.3 1558.2 4836.57 1558.54 4840.83 1559.17 4845.05 1559.76 4845.05 1594.86 4844.77 1594.99 4844.05 1595.13 4843.33 1595.72 4832.88 1596.13 4832.47 1598.97 4831.96 1601.88 4831.96 1604.72 4832.47 1604.72 4833.05 1604.31 4840.79 1605 4840.92 1605.68 4841.06 1629.64 4841.78 1629.92 4842.37 1630.19 4842.95 1629.33 4874.03 1629.33 4874.03 1629.33 4874.03 1624.04 4868.29 1623.59 4868.87 1623.15 4869.46 1621.87 4871.17 1622.46 4871.45 1624.97 4873.52 1627.27 4875.82 1629.33 4878.33 1629.47 4880.24 1629.47 4882.15 1629.33 4884.07 1626.68 4881.58 1623.86 4879.28 1620.88 4877.19 1620.6 4877.64 1619.74 4879.49 1620.16 4879.91 1620.57 4880.32 1629.33 4888.5 1629.33 4889.08 1629.33 4889.67 1629.33 4894.1 1629.33 4894.1 1626.53 4891.9 1623.62 4889.85 1620.6 4887.95 1620.19 4887.95 1619.02 4890.98 1619.61 4891.11 1623.02 4892.81 1626.23 4894.87 1629.2 4897.27 1629.2 4898.12 1629.47 4902.28 1629.47 4902.28 1629.47 4902.28 1620.22 4896.06 1619.81 4896.06 1619.4 4896.06 1619.09 4899.09 1619.09 4899.09 1622.7 4901.32 1626.15 4903.82 1629.4 4906.55 1629.49 4907.98 1629.49 4909.41 1629.4 4910.84 1626.61 4908.74 1623.64 4906.88 1620.53 4905.27 1620.12 4905.72 1619.26 4907.58 1619.95 4907.85 1620.64 4908.13 1626.41 4912.73 1625.83 4912.87 1622.7 4913.31 1619.53 4913.41 1616.37 4913.15 1616.37 4912.56 1616.37 4900.84 1615.79 4900.7 1615.21 4900.57 1588.02 4899.98 1581.69 4900.29 1575.37 4900.6 1548.62 4902.01 1548.17 4903.01 1547.73 4904 1548.62 4912.46 1548.17 4912.46 1543.24 4912.37 1538.32 4911.99 1533.43 4911.33 1533.02 4910.74 1531.71 4846.87 1533.02 4846.46 1534.32 4846.05 1548.62 4845.6 1548.62 4845.19 1548.62 4844.77 1548.59 4833.12 1548.45 4832.71Z" fill="#8EC480" fill-rule="nonzero" fill-opacity="1"/><path d="M1546.32 4857.05C1552.8 4855.92 1559.4 4855.68 1565.95 4856.33 1566.59 4862.89 1566.74 4869.5 1566.39 4876.09 1559.87 4876.74 1553.31 4876.89 1546.77 4876.54 1546.19 4870.06 1546.04 4863.55 1546.32 4857.05Z" fill="#1D1D1B" fill-rule="nonzero" fill-opacity="1"/><path d="M1553.06 4862.34C1555.22 4861.76 1557.49 4861.76 1559.66 4862.34 1559.66 4862.79 1560.65 4869.8 1559.66 4870.21 1557.41 4870.81 1555.06 4870.9 1552.78 4870.49 1552.66 4867.77 1552.75 4865.04 1553.06 4862.34Z" fill="#FAB900" fill-rule="nonzero" fill-opacity="1"/><path d="M1593.27 4855.77C1599.77 4854.65 1606.38 4854.41 1612.94 4855.05 1613.58 4861.62 1613.73 4868.23 1613.38 4874.82 1606.86 4875.47 1600.3 4875.62 1593.76 4875.27 1593.17 4868.79 1593.01 4862.28 1593.27 4855.77Z" fill="#1D1D1B" fill-rule="nonzero" fill-opacity="1"/><path d="M1600.01 4861.07C1602.17 4860.49 1604.45 4860.49 1606.61 4861.07 1606.61 4861.52 1607.61 4868.53 1606.61 4868.94 1604.37 4869.54 1602.02 4869.63 1599.74 4869.22 1599.61 4866.5 1599.71 4863.77 1600.01 4861.07Z" fill="#FAB900" fill-rule="nonzero" fill-opacity="1"/><path d="M1537.31 4851.03C1537.31 4851.89 1540.75 4850.31 1540.75 4851.03 1540.75 4851.75 1541.47 4865.06 1541.02 4865.37 1540.58 4865.67 1537.59 4866.09 1537.59 4865.37 1537.59 4864.64 1537.31 4850.76 1537.31 4851.03Z" fill="#1D1D1B" fill-rule="nonzero" fill-opacity="1"/><path d="M1637 4860.48C1637.41 4860.07 1643.87 4859.62 1643.87 4860.76 1643.87 4861.89 1643.87 4880.66 1643.15 4880.66 1640.77 4880.79 1638.37 4880.7 1636 4880.39 1635.83 4879.98 1636.55 4860.79 1637 4860.48Z" fill="#C8DB89" fill-rule="nonzero" fill-opacity="1"/><path d="M1652.02 4874.82C1652.71 4874.58 1658.31 4874.41 1658.48 4875.09 1658.66 4875.78 1656.63 4910.91 1656.04 4911.19 1654.62 4911.34 1653.17 4911.34 1651.75 4911.19 1651.75 4911.19 1651.57 4874.96 1652.02 4874.82Z" fill="#C8DB89" fill-rule="nonzero" fill-opacity="1"/><path d="M1553.92 4919.92C1560.46 4919.63 1567.02 4919.78 1573.54 4920.37 1573.54 4920.95 1573.54 4928.1 1573.54 4928.1L1553.92 4927.69C1553.63 4925.11 1553.63 4922.5 1553.92 4919.92Z" fill="#C8DB89" fill-rule="nonzero" fill-opacity="1"/><path d="M1589.29 4920.64C1596.14 4920.02 1603.03 4919.78 1609.91 4919.92 1609.91 4920.5 1610.5 4926.21 1609.91 4926.52 1609.33 4926.83 1588.87 4927 1588.87 4927 1588.87 4927 1588.87 4920.78 1589.29 4920.64Z" fill="#C8DB89" fill-rule="nonzero" fill-opacity="1"/></g></g></g></g></g></svg>