<svg width="234" height="229" xmlns="http://www.w3.org/2000/svg" xmlns:xlink="http://www.w3.org/1999/xlink" xml:space="preserve" overflow="hidden"><g transform="translate(-412 -4757)"><g><path d="M420.5 4799C420.5 4778.84 436.842 4762.5 457.001 4762.5L602.999 4762.5C623.158 4762.5 639.5 4778.84 639.5 4799L639.5 4946C639.5 4966.16 623.158 4982.5 602.999 4982.5L457.001 4982.5C436.842 4982.5 420.5 4966.16 420.5 4946Z" stroke="#042433" stroke-width="6.875" stroke-linecap="butt" stroke-linejoin="miter" stroke-miterlimit="8" stroke-opacity="1" fill="#156082" fill-rule="evenodd" fill-opacity="1"/><g><g><g><path d="M463.072 4865.64C462.872 4862.53 462.964 4859.41 463.347 4856.33 463.931 4856.33 474.244 4856.6 474.244 4856.33 474.244 4856.05 473.522 4841.72 474.828 4840.99 480.045 4840.21 485.301 4839.73 490.572 4839.55L490.572 4830.96C490.572 4830.96 477.269 4831.54 477.097 4830.37 476.925 4829.2 474.966 4811.74 476.238 4811.33 477.509 4810.92 496.863 4810.06 496.863 4811.6 496.863 4813.15 497.447 4827.35 497.447 4827.35 497.447 4827.35 511.197 4826.21 511.781 4827.35 512.366 4828.48 512.056 4838.97 513.5 4839.1 514.944 4839.24 537.288 4840.1 537.288 4839.1 537.163 4835.03 537.404 4830.96 538.009 4826.93 538.731 4826.35 554.922 4826.21 554.922 4826.21 554.665 4821.63 554.757 4817.03 555.197 4812.46 555.919 4811.47 577.266 4811.33 577.266 4812.46 577.169 4818.45 576.744 4824.43 575.994 4830.37 575.409 4830.37 559.081 4830.65 559.081 4830.65L559.081 4834.53C559.081 4834.53 585 4835.25 585.309 4836.52 585.619 4837.8 584.588 4855.57 585.309 4855.57 586.031 4855.57 598.2 4855.57 598.338 4856.88 598.475 4858.18 598.338 4868.91 598.338 4868.91 598.338 4868.91 612.088 4869.18 612.534 4870.76 612.981 4872.34 611.538 4916.17 609.956 4916.89 604.515 4917.51 599.012 4917.31 593.628 4916.31 593.216 4915.45 593.628 4887.09 592.906 4886.82 592.184 4886.54 584.175 4886.82 584.175 4886.82 584.175 4886.82 585.034 4917.75 583.9 4918.89 582.766 4920.02 565.441 4919.75 565.441 4919.75 565.441 4919.75 566.747 4931.64 565.888 4931.92 565.028 4932.19 531.238 4933.91 531.238 4932.64 531.238 4931.37 530.963 4915.45 532.234 4914.73 533.506 4914.01 557.156 4914.01 557.019 4913.28 556.881 4912.56 557.019 4906.99 556.606 4906.86 556.194 4906.72 502.5 4907.61 502.5 4908.47 502.201 4910.51 502.201 4912.58 502.5 4914.62 502.947 4914.62 527.147 4915.21 527.284 4915.62 527.707 4921.34 527.707 4927.09 527.284 4932.81 516.888 4933.38 506.468 4933.38 496.072 4932.81 494.938 4932.09 494.491 4918.78 494.491 4918.78 494.491 4918.78 475.447 4916.79 475.309 4915.79 475.172 4914.8 475.309 4887.16 474.725 4886.71 472.837 4886.27 470.873 4886.27 468.984 4886.71 468.984 4887.16 469.569 4914.21 468.984 4914.49 468.4 4914.76 448.359 4916.79 448.359 4914.49 448.359 4912.18 446.916 4868.56 448.188 4867.67 453.085 4866.58 458.063 4865.91 463.072 4865.64Z" fill="#1D1D1B" fill-rule="nonzero" fill-opacity="1"/><path d="M454.788 4873.1C457.567 4872.48 460.397 4872.11 463.244 4872 463.244 4872 463.691 4909.81 463.244 4909.81 462.797 4909.81 455.097 4910.95 454.788 4909.81 454.478 4908.68 454.375 4873.82 454.788 4873.1Z" fill="#C8DB89" fill-rule="nonzero" fill-opacity="1"/><path d="M470.119 4861.69C471.365 4861.18 472.757 4861.18 474.003 4861.69 474.003 4862.13 474.278 4880.87 474.003 4880.87 473.728 4880.87 470.291 4881.59 470.153 4880.87 470.016 4880.15 469.672 4862.07 470.119 4861.69Z" fill="#C8DB89" fill-rule="nonzero" fill-opacity="1"/><path d="M482.7 4816.24C483.319 4815.83 490.434 4815.83 490.709 4816.69 491.143 4819.45 491.143 4822.25 490.709 4825.01 488.042 4825.15 485.368 4825.15 482.7 4825.01 482.072 4822.12 482.072 4819.13 482.7 4816.24Z" fill="#C8DB89" fill-rule="nonzero" fill-opacity="1"/><path d="M561.213 4817C564.176 4816.78 567.155 4816.93 570.081 4817.45 570.285 4819.98 570.193 4822.53 569.806 4825.04 566.949 4825.33 564.07 4825.33 561.213 4825.04 561.063 4822.36 561.063 4819.68 561.213 4817Z" fill="#C8DB89" fill-rule="nonzero" fill-opacity="1"/><path d="M496.45 4832.71C496.45 4832.71 506.178 4831.58 506.178 4832.3 506.202 4836.57 506.536 4840.83 507.175 4845.05 507.759 4845.05 542.856 4844.77 542.994 4844.05 543.131 4843.33 543.716 4832.88 544.128 4832.47 546.97 4831.96 549.88 4831.96 552.722 4832.47 552.722 4833.05 552.309 4840.79 552.997 4840.92 553.684 4841.06 577.644 4841.78 577.919 4842.37 578.194 4842.95 577.334 4874.03 577.334 4874.03 577.334 4874.03 572.041 4868.29 571.594 4868.87 571.147 4869.46 569.875 4871.17 570.459 4871.45 572.966 4873.52 575.268 4875.82 577.334 4878.33 577.469 4880.24 577.469 4882.15 577.334 4884.07 574.682 4881.58 571.856 4879.28 568.878 4877.19 568.603 4877.64 567.744 4879.49 568.156 4879.91 568.569 4880.32 577.334 4888.5 577.334 4889.08 577.334 4889.67 577.334 4894.1 577.334 4894.1 574.531 4891.9 571.617 4889.85 568.603 4887.95 568.191 4887.95 567.022 4890.98 567.606 4891.11 571.019 4892.81 574.235 4894.87 577.197 4897.27 577.197 4898.12 577.472 4902.28 577.472 4902.28 577.472 4902.28 568.225 4896.06 567.813 4896.06 567.4 4896.06 567.091 4899.09 567.091 4899.09 570.702 4901.32 574.148 4903.82 577.403 4906.55 577.491 4907.98 577.491 4909.41 577.403 4910.84 574.61 4908.74 571.643 4906.88 568.534 4905.27 568.122 4905.72 567.263 4907.58 567.95 4907.85 568.638 4908.13 574.413 4912.73 573.828 4912.87 570.697 4913.31 567.526 4913.41 564.375 4913.15 564.375 4912.56 564.375 4900.84 563.791 4900.7 563.206 4900.57 536.016 4899.98 529.691 4900.29 523.366 4900.6 496.622 4902.01 496.175 4903.01 495.728 4904 496.622 4912.46 496.175 4912.46 491.241 4912.37 486.317 4911.99 481.428 4911.33 481.016 4910.74 479.709 4846.87 481.016 4846.46 482.322 4846.05 496.622 4845.6 496.622 4845.19 496.622 4844.77 496.588 4833.12 496.45 4832.71Z" fill="#8EC480" fill-rule="nonzero" fill-opacity="1"/><path d="M494.319 4857.05C500.799 4855.92 507.402 4855.68 513.947 4856.33 514.591 4862.89 514.74 4869.5 514.394 4876.09 507.872 4876.74 501.31 4876.89 494.766 4876.54 494.188 4870.06 494.039 4863.55 494.319 4857.05Z" fill="#1D1D1B" fill-rule="nonzero" fill-opacity="1"/><path d="M501.056 4862.34C503.219 4861.76 505.494 4861.76 507.656 4862.34 507.656 4862.79 508.653 4869.8 507.656 4870.21 505.413 4870.81 503.065 4870.9 500.781 4870.49 500.658 4867.77 500.75 4865.04 501.056 4862.34Z" fill="#FAB900" fill-rule="nonzero" fill-opacity="1"/><path d="M541.275 4855.77C547.767 4854.65 554.381 4854.41 560.938 4855.05 561.581 4861.62 561.731 4868.23 561.384 4874.82 554.863 4875.47 548.301 4875.62 541.756 4875.27 541.167 4868.79 541.006 4862.28 541.275 4855.77Z" fill="#1D1D1B" fill-rule="nonzero" fill-opacity="1"/><path d="M548.013 4861.07C550.175 4860.49 552.45 4860.49 554.613 4861.07 554.613 4861.52 555.609 4868.53 554.613 4868.94 552.369 4869.54 550.021 4869.63 547.738 4869.22 547.614 4866.5 547.706 4863.77 548.013 4861.07Z" fill="#FAB900" fill-rule="nonzero" fill-opacity="1"/><path d="M485.313 4851.03C485.313 4851.89 488.75 4850.31 488.75 4851.03 488.75 4851.75 489.472 4865.06 489.025 4865.37 488.578 4865.67 485.588 4866.09 485.588 4865.37 485.588 4864.64 485.313 4850.76 485.313 4851.03Z" fill="#1D1D1B" fill-rule="nonzero" fill-opacity="1"/><path d="M585 4860.48C585.413 4860.07 591.875 4859.62 591.875 4860.76 591.875 4861.89 591.875 4880.66 591.153 4880.66 588.766 4880.79 586.373 4880.7 584.003 4880.39 583.831 4879.98 584.553 4860.79 585 4860.48Z" fill="#C8DB89" fill-rule="nonzero" fill-opacity="1"/><path d="M600.022 4874.82C600.709 4874.58 606.313 4874.41 606.484 4875.09 606.656 4875.78 604.628 4910.91 604.044 4911.19 602.616 4911.34 601.175 4911.34 599.747 4911.19 599.747 4911.19 599.575 4874.96 600.022 4874.82Z" fill="#C8DB89" fill-rule="nonzero" fill-opacity="1"/><path d="M501.916 4919.92C508.461 4919.63 515.018 4919.78 521.544 4920.37 521.544 4920.95 521.544 4928.1 521.544 4928.1L501.916 4927.69C501.628 4925.11 501.628 4922.5 501.916 4919.92Z" fill="#C8DB89" fill-rule="nonzero" fill-opacity="1"/><path d="M537.288 4920.64C544.144 4920.02 551.029 4919.78 557.913 4919.92 557.913 4920.5 558.497 4926.21 557.913 4926.52 557.328 4926.83 536.875 4927 536.875 4927 536.875 4927 536.875 4920.78 537.288 4920.64Z" fill="#C8DB89" fill-rule="nonzero" fill-opacity="1"/></g></g></g></g></g></svg>