<svg width="230" height="229" xmlns="http://www.w3.org/2000/svg" xmlns:xlink="http://www.w3.org/1999/xlink" xml:space="preserve" overflow="hidden"><g transform="translate(-1727 -4757)"><g><path d="M1733.5 4799C1733.5 4778.84 1749.84 4762.5 1770 4762.5L1916 4762.5C1936.16 4762.5 1952.5 4778.84 1952.5 4799L1952.5 4946C1952.5 4966.16 1936.16 4982.5 1916 4982.5L1770 4982.5C1749.84 4982.5 1733.5 4966.16 1733.5 4946Z" stroke="#042433" stroke-width="6.875" stroke-linecap="butt" stroke-linejoin="miter" stroke-miterlimit="8" stroke-opacity="1" fill="#2C3D4F" fill-rule="evenodd" fill-opacity="1"/><g><g><g><path d="M1776.07 4865.64C1775.87 4862.53 1775.96 4859.41 1776.35 4856.33 1776.93 4856.33 1787.24 4856.6 1787.24 4856.33 1787.24 4856.05 1786.52 4841.72 1787.83 4840.99 1793.04 4840.21 1798.3 4839.73 1803.57 4839.55L1803.57 4830.96C1803.57 4830.96 1790.27 4831.54 1790.1 4830.37 1789.92 4829.2 1787.97 4811.74 1789.24 4811.33 1790.51 4810.92 1809.86 4810.06 1809.86 4811.6 1809.86 4813.15 1810.45 4827.35 1810.45 4827.35 1810.45 4827.35 1824.2 4826.21 1824.78 4827.35 1825.37 4828.48 1825.06 4838.97 1826.5 4839.1 1827.94 4839.24 1850.29 4840.1 1850.29 4839.1 1850.16 4835.03 1850.4 4830.96 1851.01 4826.93 1851.73 4826.35 1867.92 4826.21 1867.92 4826.21 1867.66 4821.63 1867.76 4817.03 1868.2 4812.46 1868.92 4811.47 1890.27 4811.33 1890.27 4812.46 1890.17 4818.45 1889.74 4824.43 1888.99 4830.37 1888.41 4830.37 1872.08 4830.65 1872.08 4830.65L1872.08 4834.53C1872.08 4834.53 1898 4835.25 1898.31 4836.52 1898.62 4837.8 1897.59 4855.57 1898.31 4855.57 1899.03 4855.57 1911.2 4855.57 1911.34 4856.88 1911.47 4858.18 1911.34 4868.91 1911.34 4868.91 1911.34 4868.91 1925.09 4869.18 1925.53 4870.76 1925.98 4872.34 1924.54 4916.17 1922.96 4916.89 1917.51 4917.51 1912.01 4917.31 1906.63 4916.31 1906.22 4915.45 1906.63 4887.09 1905.91 4886.82 1905.18 4886.54 1897.17 4886.82 1897.17 4886.82 1897.17 4886.82 1898.03 4917.75 1896.9 4918.89 1895.77 4920.02 1878.44 4919.75 1878.44 4919.75 1878.44 4919.75 1879.75 4931.64 1878.89 4931.92 1878.03 4932.19 1844.24 4933.91 1844.24 4932.64 1844.24 4931.37 1843.96 4915.45 1845.23 4914.73 1846.51 4914.01 1870.16 4914.01 1870.02 4913.28 1869.88 4912.56 1870.02 4906.99 1869.61 4906.86 1869.19 4906.72 1815.5 4907.61 1815.5 4908.47 1815.2 4910.51 1815.2 4912.58 1815.5 4914.62 1815.95 4914.62 1840.15 4915.21 1840.28 4915.62 1840.71 4921.34 1840.71 4927.09 1840.28 4932.81 1829.89 4933.38 1819.47 4933.38 1809.07 4932.81 1807.94 4932.09 1807.49 4918.78 1807.49 4918.78 1807.49 4918.78 1788.45 4916.79 1788.31 4915.79 1788.17 4914.8 1788.31 4887.16 1787.72 4886.71 1785.84 4886.27 1783.87 4886.27 1781.98 4886.71 1781.98 4887.16 1782.57 4914.21 1781.98 4914.49 1781.4 4914.76 1761.36 4916.79 1761.36 4914.49 1761.36 4912.18 1759.92 4868.56 1761.19 4867.67 1766.08 4866.58 1771.06 4865.91 1776.07 4865.64Z" fill="#1D1D1B" fill-rule="nonzero" fill-opacity="1"/><path d="M1767.79 4873.1C1770.57 4872.48 1773.4 4872.11 1776.24 4872 1776.24 4872 1776.69 4909.81 1776.24 4909.81 1775.8 4909.81 1768.1 4910.95 1767.79 4909.81 1767.48 4908.68 1767.37 4873.82 1767.79 4873.1Z" fill="#C8DB89" fill-rule="nonzero" fill-opacity="1"/><path d="M1783.12 4861.69C1784.36 4861.18 1785.76 4861.18 1787 4861.69 1787 4862.13 1787.28 4880.87 1787 4880.87 1786.73 4880.87 1783.29 4881.59 1783.15 4880.87 1783.02 4880.15 1782.67 4862.07 1783.12 4861.69Z" fill="#C8DB89" fill-rule="nonzero" fill-opacity="1"/><path d="M1795.7 4816.24C1796.32 4815.83 1803.43 4815.83 1803.71 4816.69 1804.14 4819.45 1804.14 4822.25 1803.71 4825.01 1801.04 4825.15 1798.37 4825.15 1795.7 4825.01 1795.07 4822.12 1795.07 4819.13 1795.7 4816.24Z" fill="#C8DB89" fill-rule="nonzero" fill-opacity="1"/><path d="M1874.21 4817C1877.18 4816.78 1880.15 4816.93 1883.08 4817.45 1883.28 4819.98 1883.19 4822.53 1882.81 4825.04 1879.95 4825.33 1877.07 4825.33 1874.21 4825.04 1874.06 4822.36 1874.06 4819.68 1874.21 4817Z" fill="#C8DB89" fill-rule="nonzero" fill-opacity="1"/><path d="M1809.45 4832.71C1809.45 4832.71 1819.18 4831.58 1819.18 4832.3 1819.2 4836.57 1819.54 4840.83 1820.17 4845.05 1820.76 4845.05 1855.86 4844.77 1855.99 4844.05 1856.13 4843.33 1856.72 4832.88 1857.13 4832.47 1859.97 4831.96 1862.88 4831.96 1865.72 4832.47 1865.72 4833.05 1865.31 4840.79 1866 4840.92 1866.68 4841.06 1890.64 4841.78 1890.92 4842.37 1891.19 4842.95 1890.33 4874.03 1890.33 4874.03 1890.33 4874.03 1885.04 4868.29 1884.59 4868.87 1884.15 4869.46 1882.87 4871.17 1883.46 4871.45 1885.97 4873.52 1888.27 4875.82 1890.33 4878.33 1890.47 4880.24 1890.47 4882.15 1890.33 4884.07 1887.68 4881.58 1884.86 4879.28 1881.88 4877.19 1881.6 4877.64 1880.74 4879.49 1881.16 4879.91 1881.57 4880.32 1890.33 4888.5 1890.33 4889.08 1890.33 4889.67 1890.33 4894.1 1890.33 4894.1 1887.53 4891.9 1884.62 4889.85 1881.6 4887.95 1881.19 4887.95 1880.02 4890.98 1880.61 4891.11 1884.02 4892.81 1887.23 4894.87 1890.2 4897.27 1890.2 4898.12 1890.47 4902.28 1890.47 4902.28 1890.47 4902.28 1881.22 4896.06 1880.81 4896.06 1880.4 4896.06 1880.09 4899.09 1880.09 4899.09 1883.7 4901.32 1887.15 4903.82 1890.4 4906.55 1890.49 4907.98 1890.49 4909.41 1890.4 4910.84 1887.61 4908.74 1884.64 4906.88 1881.53 4905.27 1881.12 4905.72 1880.26 4907.58 1880.95 4907.85 1881.64 4908.13 1887.41 4912.73 1886.83 4912.87 1883.7 4913.31 1880.53 4913.41 1877.37 4913.15 1877.37 4912.56 1877.37 4900.84 1876.79 4900.7 1876.21 4900.57 1849.02 4899.98 1842.69 4900.29 1836.37 4900.6 1809.62 4902.01 1809.17 4903.01 1808.73 4904 1809.62 4912.46 1809.17 4912.46 1804.24 4912.37 1799.32 4911.99 1794.43 4911.33 1794.02 4910.74 1792.71 4846.87 1794.02 4846.46 1795.32 4846.05 1809.62 4845.6 1809.62 4845.19 1809.62 4844.77 1809.59 4833.12 1809.45 4832.71Z" fill="#8EC480" fill-rule="nonzero" fill-opacity="1"/><path d="M1807.32 4857.05C1813.8 4855.92 1820.4 4855.68 1826.95 4856.33 1827.59 4862.89 1827.74 4869.5 1827.39 4876.09 1820.87 4876.74 1814.31 4876.89 1807.77 4876.54 1807.19 4870.06 1807.04 4863.55 1807.32 4857.05Z" fill="#1D1D1B" fill-rule="nonzero" fill-opacity="1"/><path d="M1814.06 4862.34C1816.22 4861.76 1818.49 4861.76 1820.66 4862.34 1820.66 4862.79 1821.65 4869.8 1820.66 4870.21 1818.41 4870.81 1816.06 4870.9 1813.78 4870.49 1813.66 4867.77 1813.75 4865.04 1814.06 4862.34Z" fill="#FAB900" fill-rule="nonzero" fill-opacity="1"/><path d="M1854.27 4855.77C1860.77 4854.65 1867.38 4854.41 1873.94 4855.05 1874.58 4861.62 1874.73 4868.23 1874.38 4874.82 1867.86 4875.47 1861.3 4875.62 1854.76 4875.27 1854.17 4868.79 1854.01 4862.28 1854.27 4855.77Z" fill="#1D1D1B" fill-rule="nonzero" fill-opacity="1"/><path d="M1861.01 4861.07C1863.17 4860.49 1865.45 4860.49 1867.61 4861.07 1867.61 4861.52 1868.61 4868.53 1867.61 4868.94 1865.37 4869.54 1863.02 4869.63 1860.74 4869.22 1860.61 4866.5 1860.71 4863.77 1861.01 4861.07Z" fill="#FAB900" fill-rule="nonzero" fill-opacity="1"/><path d="M1798.31 4851.03C1798.31 4851.89 1801.75 4850.31 1801.75 4851.03 1801.75 4851.75 1802.47 4865.06 1802.02 4865.37 1801.58 4865.67 1798.59 4866.09 1798.59 4865.37 1798.59 4864.64 1798.31 4850.76 1798.31 4851.03Z" fill="#1D1D1B" fill-rule="nonzero" fill-opacity="1"/><path d="M1898 4860.48C1898.41 4860.07 1904.87 4859.62 1904.87 4860.76 1904.87 4861.89 1904.87 4880.66 1904.15 4880.66 1901.77 4880.79 1899.37 4880.7 1897 4880.39 1896.83 4879.98 1897.55 4860.79 1898 4860.48Z" fill="#C8DB89" fill-rule="nonzero" fill-opacity="1"/><path d="M1913.02 4874.82C1913.71 4874.58 1919.31 4874.41 1919.48 4875.09 1919.66 4875.78 1917.63 4910.91 1917.04 4911.19 1915.62 4911.34 1914.17 4911.34 1912.75 4911.19 1912.75 4911.19 1912.57 4874.96 1913.02 4874.82Z" fill="#C8DB89" fill-rule="nonzero" fill-opacity="1"/><path d="M1814.92 4919.92C1821.46 4919.63 1828.02 4919.78 1834.54 4920.37 1834.54 4920.95 1834.54 4928.1 1834.54 4928.1L1814.92 4927.69C1814.63 4925.11 1814.63 4922.5 1814.92 4919.92Z" fill="#C8DB89" fill-rule="nonzero" fill-opacity="1"/><path d="M1850.29 4920.64C1857.14 4920.02 1864.03 4919.78 1870.91 4919.92 1870.91 4920.5 1871.5 4926.21 1870.91 4926.52 1870.33 4926.83 1849.87 4927 1849.87 4927 1849.87 4927 1849.87 4920.78 1850.29 4920.64Z" fill="#C8DB89" fill-rule="nonzero" fill-opacity="1"/></g></g></g></g></g></svg>