<svg width="234" height="229" xmlns="http://www.w3.org/2000/svg" xmlns:xlink="http://www.w3.org/1999/xlink" xml:space="preserve" overflow="hidden"><g transform="translate(-939 -4757)"><g><path d="M947.5 4799.17C947.5 4778.92 963.916 4762.5 984.167 4762.5L1130.83 4762.5C1151.08 4762.5 1167.5 4778.92 1167.5 4799.17L1167.5 4945.83C1167.5 4966.08 1151.08 4982.5 1130.83 4982.5L984.167 4982.5C963.916 4982.5 947.5 4966.08 947.5 4945.83Z" stroke="#042433" stroke-width="6.875" stroke-linecap="butt" stroke-linejoin="miter" stroke-miterlimit="8" stroke-opacity="1" fill="#666666" fill-rule="evenodd" fill-opacity="1"/><g><g><g><path d="M990.072 4865.64C989.872 4862.53 989.964 4859.41 990.347 4856.33 990.931 4856.33 1001.24 4856.6 1001.24 4856.33 1001.24 4856.05 1000.52 4841.72 1001.83 4840.99 1007.04 4840.21 1012.3 4839.73 1017.57 4839.55L1017.57 4830.96C1017.57 4830.96 1004.27 4831.54 1004.1 4830.37 1003.93 4829.2 1001.97 4811.74 1003.24 4811.33 1004.51 4810.92 1023.86 4810.06 1023.86 4811.6 1023.86 4813.15 1024.45 4827.35 1024.45 4827.35 1024.45 4827.35 1038.2 4826.21 1038.78 4827.35 1039.37 4828.48 1039.06 4838.97 1040.5 4839.1 1041.94 4839.24 1064.29 4840.1 1064.29 4839.1 1064.16 4835.03 1064.4 4830.96 1065.01 4826.93 1065.73 4826.35 1081.92 4826.21 1081.92 4826.21 1081.66 4821.63 1081.76 4817.03 1082.2 4812.46 1082.92 4811.47 1104.27 4811.33 1104.27 4812.46 1104.17 4818.45 1103.74 4824.43 1102.99 4830.37 1102.41 4830.37 1086.08 4830.65 1086.08 4830.65L1086.08 4834.53C1086.08 4834.53 1112 4835.25 1112.31 4836.52 1112.62 4837.8 1111.59 4855.57 1112.31 4855.57 1113.03 4855.57 1125.2 4855.57 1125.34 4856.88 1125.48 4858.18 1125.34 4868.91 1125.34 4868.91 1125.34 4868.91 1139.09 4869.18 1139.53 4870.76 1139.98 4872.34 1138.54 4916.17 1136.96 4916.89 1131.51 4917.51 1126.01 4917.31 1120.63 4916.31 1120.22 4915.45 1120.63 4887.09 1119.91 4886.82 1119.18 4886.54 1111.18 4886.82 1111.18 4886.82 1111.18 4886.82 1112.03 4917.75 1110.9 4918.89 1109.77 4920.02 1092.44 4919.75 1092.44 4919.75 1092.44 4919.75 1093.75 4931.64 1092.89 4931.92 1092.03 4932.19 1058.24 4933.91 1058.24 4932.64 1058.24 4931.37 1057.96 4915.45 1059.23 4914.73 1060.51 4914.01 1084.16 4914.01 1084.02 4913.28 1083.88 4912.56 1084.02 4906.99 1083.61 4906.86 1083.19 4906.72 1029.5 4907.61 1029.5 4908.47 1029.2 4910.51 1029.2 4912.58 1029.5 4914.62 1029.95 4914.62 1054.15 4915.21 1054.28 4915.62 1054.71 4921.34 1054.71 4927.09 1054.28 4932.81 1043.89 4933.38 1033.47 4933.38 1023.07 4932.81 1021.94 4932.09 1021.49 4918.78 1021.49 4918.78 1021.49 4918.78 1002.45 4916.79 1002.31 4915.79 1002.17 4914.8 1002.31 4887.16 1001.73 4886.71 999.837 4886.27 997.873 4886.27 995.984 4886.71 995.984 4887.16 996.569 4914.21 995.984 4914.49 995.4 4914.76 975.359 4916.79 975.359 4914.49 975.359 4912.18 973.916 4868.56 975.188 4867.67 980.085 4866.58 985.063 4865.91 990.072 4865.64Z" fill="#1D1D1B" fill-rule="nonzero" fill-opacity="1"/><path d="M981.788 4873.1C984.567 4872.48 987.397 4872.11 990.244 4872 990.244 4872 990.691 4909.81 990.244 4909.81 989.797 4909.81 982.097 4910.95 981.788 4909.81 981.478 4908.68 981.375 4873.82 981.788 4873.1Z" fill="#C8DB89" fill-rule="nonzero" fill-opacity="1"/><path d="M997.119 4861.69C998.365 4861.18 999.757 4861.18 1001 4861.69 1001 4862.13 1001.28 4880.87 1001 4880.87 1000.73 4880.87 997.291 4881.59 997.153 4880.87 997.016 4880.15 996.672 4862.07 997.119 4861.69Z" fill="#C8DB89" fill-rule="nonzero" fill-opacity="1"/><path d="M1009.7 4816.24C1010.32 4815.83 1017.43 4815.83 1017.71 4816.69 1018.14 4819.45 1018.14 4822.25 1017.71 4825.01 1015.04 4825.15 1012.37 4825.15 1009.7 4825.01 1009.07 4822.12 1009.07 4819.13 1009.7 4816.24Z" fill="#C8DB89" fill-rule="nonzero" fill-opacity="1"/><path d="M1088.21 4817C1091.18 4816.78 1094.16 4816.93 1097.08 4817.45 1097.29 4819.98 1097.19 4822.53 1096.81 4825.04 1093.95 4825.33 1091.07 4825.33 1088.21 4825.04 1088.06 4822.36 1088.06 4819.68 1088.21 4817Z" fill="#C8DB89" fill-rule="nonzero" fill-opacity="1"/><path d="M1023.45 4832.71C1023.45 4832.71 1033.18 4831.58 1033.18 4832.3 1033.2 4836.57 1033.54 4840.83 1034.18 4845.05 1034.76 4845.05 1069.86 4844.77 1069.99 4844.05 1070.13 4843.33 1070.72 4832.88 1071.13 4832.47 1073.97 4831.96 1076.88 4831.96 1079.72 4832.47 1079.72 4833.05 1079.31 4840.79 1080 4840.92 1080.68 4841.06 1104.64 4841.78 1104.92 4842.37 1105.19 4842.95 1104.33 4874.03 1104.33 4874.03 1104.33 4874.03 1099.04 4868.29 1098.59 4868.87 1098.15 4869.46 1096.88 4871.17 1097.46 4871.45 1099.97 4873.52 1102.27 4875.82 1104.33 4878.33 1104.47 4880.24 1104.47 4882.15 1104.33 4884.07 1101.68 4881.58 1098.86 4879.28 1095.88 4877.19 1095.6 4877.64 1094.74 4879.49 1095.16 4879.91 1095.57 4880.32 1104.33 4888.5 1104.33 4889.08 1104.33 4889.67 1104.33 4894.1 1104.33 4894.1 1101.53 4891.9 1098.62 4889.85 1095.6 4887.95 1095.19 4887.95 1094.02 4890.98 1094.61 4891.11 1098.02 4892.81 1101.23 4894.87 1104.2 4897.27 1104.2 4898.12 1104.47 4902.28 1104.47 4902.28 1104.47 4902.28 1095.23 4896.06 1094.81 4896.06 1094.4 4896.06 1094.09 4899.09 1094.09 4899.09 1097.7 4901.32 1101.15 4903.82 1104.4 4906.55 1104.49 4907.98 1104.49 4909.41 1104.4 4910.84 1101.61 4908.74 1098.64 4906.88 1095.53 4905.27 1095.12 4905.72 1094.26 4907.58 1094.95 4907.85 1095.64 4908.13 1101.41 4912.73 1100.83 4912.87 1097.7 4913.31 1094.53 4913.41 1091.38 4913.15 1091.38 4912.56 1091.38 4900.84 1090.79 4900.7 1090.21 4900.57 1063.02 4899.98 1056.69 4900.29 1050.37 4900.6 1023.62 4902.01 1023.18 4903.01 1022.73 4904 1023.62 4912.46 1023.18 4912.46 1018.24 4912.37 1013.32 4911.99 1008.43 4911.33 1008.02 4910.74 1006.71 4846.87 1008.02 4846.46 1009.32 4846.05 1023.62 4845.6 1023.62 4845.19 1023.62 4844.77 1023.59 4833.12 1023.45 4832.71Z" fill="#8EC480" fill-rule="nonzero" fill-opacity="1"/><path d="M1021.32 4857.05C1027.8 4855.92 1034.4 4855.68 1040.95 4856.33 1041.59 4862.89 1041.74 4869.5 1041.39 4876.09 1034.87 4876.74 1028.31 4876.89 1021.77 4876.54 1021.19 4870.06 1021.04 4863.55 1021.32 4857.05Z" fill="#1D1D1B" fill-rule="nonzero" fill-opacity="1"/><path d="M1028.06 4862.34C1030.22 4861.76 1032.49 4861.76 1034.66 4862.34 1034.66 4862.79 1035.65 4869.8 1034.66 4870.21 1032.41 4870.81 1030.07 4870.9 1027.78 4870.49 1027.66 4867.77 1027.75 4865.04 1028.06 4862.34Z" fill="#FAB900" fill-rule="nonzero" fill-opacity="1"/><path d="M1068.28 4855.77C1074.77 4854.65 1081.38 4854.41 1087.94 4855.05 1088.58 4861.62 1088.73 4868.23 1088.38 4874.82 1081.86 4875.47 1075.3 4875.62 1068.76 4875.27 1068.17 4868.79 1068.01 4862.28 1068.28 4855.77Z" fill="#1D1D1B" fill-rule="nonzero" fill-opacity="1"/><path d="M1075.01 4861.07C1077.17 4860.49 1079.45 4860.49 1081.61 4861.07 1081.61 4861.52 1082.61 4868.53 1081.61 4868.94 1079.37 4869.54 1077.02 4869.63 1074.74 4869.22 1074.61 4866.5 1074.71 4863.77 1075.01 4861.07Z" fill="#FAB900" fill-rule="nonzero" fill-opacity="1"/><path d="M1012.31 4851.03C1012.31 4851.89 1015.75 4850.31 1015.75 4851.03 1015.75 4851.75 1016.47 4865.06 1016.03 4865.37 1015.58 4865.67 1012.59 4866.09 1012.59 4865.37 1012.59 4864.64 1012.31 4850.76 1012.31 4851.03Z" fill="#1D1D1B" fill-rule="nonzero" fill-opacity="1"/><path d="M1112 4860.48C1112.41 4860.07 1118.88 4859.62 1118.88 4860.76 1118.88 4861.89 1118.88 4880.66 1118.15 4880.66 1115.77 4880.79 1113.37 4880.7 1111 4880.39 1110.83 4879.98 1111.55 4860.79 1112 4860.48Z" fill="#C8DB89" fill-rule="nonzero" fill-opacity="1"/><path d="M1127.02 4874.82C1127.71 4874.58 1133.31 4874.41 1133.48 4875.09 1133.66 4875.78 1131.63 4910.91 1131.04 4911.19 1129.62 4911.34 1128.18 4911.34 1126.75 4911.19 1126.75 4911.19 1126.58 4874.96 1127.02 4874.82Z" fill="#C8DB89" fill-rule="nonzero" fill-opacity="1"/><path d="M1028.92 4919.92C1035.46 4919.63 1042.02 4919.78 1048.54 4920.37 1048.54 4920.95 1048.54 4928.1 1048.54 4928.1L1028.92 4927.69C1028.63 4925.11 1028.63 4922.5 1028.92 4919.92Z" fill="#C8DB89" fill-rule="nonzero" fill-opacity="1"/><path d="M1064.29 4920.64C1071.14 4920.02 1078.03 4919.78 1084.91 4919.92 1084.91 4920.5 1085.5 4926.21 1084.91 4926.52 1084.33 4926.83 1063.88 4927 1063.88 4927 1063.88 4927 1063.88 4920.78 1064.29 4920.64Z" fill="#C8DB89" fill-rule="nonzero" fill-opacity="1"/></g></g></g></g></g></svg>