<svg width="229" height="229" xmlns="http://www.w3.org/2000/svg" xmlns:xlink="http://www.w3.org/1999/xlink" xml:space="preserve" overflow="hidden"><g transform="translate(-1205 -4757)"><g><path d="M1210.5 4799.17C1210.5 4778.92 1226.92 4762.5 1247.17 4762.5L1393.83 4762.5C1414.08 4762.5 1430.5 4778.92 1430.5 4799.17L1430.5 4945.83C1430.5 4966.08 1414.08 4982.5 1393.83 4982.5L1247.17 4982.5C1226.92 4982.5 1210.5 4966.08 1210.5 4945.83Z" stroke="#042433" stroke-width="6.875" stroke-linecap="butt" stroke-linejoin="miter" stroke-miterlimit="8" stroke-opacity="1" fill="#F3D776" fill-rule="evenodd" fill-opacity="1"/><g><g><g><path d="M1253.07 4865.64C1252.87 4862.53 1252.96 4859.41 1253.35 4856.33 1253.93 4856.33 1264.24 4856.6 1264.24 4856.33 1264.24 4856.05 1263.52 4841.72 1264.83 4840.99 1270.04 4840.21 1275.3 4839.73 1280.57 4839.55L1280.57 4830.96C1280.57 4830.96 1267.27 4831.54 1267.1 4830.37 1266.93 4829.2 1264.97 4811.74 1266.24 4811.33 1267.51 4810.92 1286.86 4810.06 1286.86 4811.6 1286.86 4813.15 1287.45 4827.35 1287.45 4827.35 1287.45 4827.35 1301.2 4826.21 1301.78 4827.35 1302.37 4828.48 1302.06 4838.97 1303.5 4839.1 1304.94 4839.24 1327.29 4840.1 1327.29 4839.1 1327.16 4835.03 1327.4 4830.96 1328.01 4826.93 1328.73 4826.35 1344.92 4826.21 1344.92 4826.21 1344.66 4821.63 1344.76 4817.03 1345.2 4812.46 1345.92 4811.47 1367.27 4811.33 1367.27 4812.46 1367.17 4818.45 1366.74 4824.43 1365.99 4830.37 1365.41 4830.37 1349.08 4830.65 1349.08 4830.65L1349.08 4834.53C1349.08 4834.53 1375 4835.25 1375.31 4836.52 1375.62 4837.8 1374.59 4855.57 1375.31 4855.57 1376.03 4855.57 1388.2 4855.57 1388.34 4856.88 1388.47 4858.18 1388.34 4868.91 1388.34 4868.91 1388.34 4868.91 1402.09 4869.18 1402.53 4870.76 1402.98 4872.34 1401.54 4916.17 1399.96 4916.89 1394.51 4917.51 1389.01 4917.31 1383.63 4916.31 1383.22 4915.45 1383.63 4887.09 1382.91 4886.82 1382.18 4886.54 1374.18 4886.82 1374.18 4886.82 1374.18 4886.82 1375.03 4917.75 1373.9 4918.89 1372.77 4920.02 1355.44 4919.75 1355.44 4919.75 1355.44 4919.75 1356.75 4931.64 1355.89 4931.92 1355.03 4932.19 1321.24 4933.91 1321.24 4932.64 1321.24 4931.37 1320.96 4915.45 1322.23 4914.73 1323.51 4914.01 1347.16 4914.01 1347.02 4913.28 1346.88 4912.56 1347.02 4906.99 1346.61 4906.86 1346.19 4906.72 1292.5 4907.61 1292.5 4908.47 1292.2 4910.51 1292.2 4912.58 1292.5 4914.62 1292.95 4914.62 1317.15 4915.21 1317.28 4915.62 1317.71 4921.34 1317.71 4927.09 1317.28 4932.81 1306.89 4933.38 1296.47 4933.38 1286.07 4932.81 1284.94 4932.09 1284.49 4918.78 1284.49 4918.78 1284.49 4918.78 1265.45 4916.79 1265.31 4915.79 1265.17 4914.8 1265.31 4887.16 1264.72 4886.71 1262.84 4886.27 1260.87 4886.27 1258.98 4886.71 1258.98 4887.16 1259.57 4914.21 1258.98 4914.49 1258.4 4914.76 1238.36 4916.79 1238.36 4914.49 1238.36 4912.18 1236.92 4868.56 1238.19 4867.67 1243.08 4866.58 1248.06 4865.91 1253.07 4865.64Z" fill="#1D1D1B" fill-rule="nonzero" fill-opacity="1"/><path d="M1244.79 4873.1C1247.57 4872.48 1250.4 4872.11 1253.24 4872 1253.24 4872 1253.69 4909.81 1253.24 4909.81 1252.8 4909.81 1245.1 4910.95 1244.79 4909.81 1244.48 4908.68 1244.38 4873.82 1244.79 4873.1Z" fill="#C8DB89" fill-rule="nonzero" fill-opacity="1"/><path d="M1260.12 4861.69C1261.36 4861.18 1262.76 4861.18 1264 4861.69 1264 4862.13 1264.28 4880.87 1264 4880.87 1263.73 4880.87 1260.29 4881.59 1260.15 4880.87 1260.02 4880.15 1259.67 4862.07 1260.12 4861.69Z" fill="#C8DB89" fill-rule="nonzero" fill-opacity="1"/><path d="M1272.7 4816.24C1273.32 4815.83 1280.43 4815.83 1280.71 4816.69 1281.14 4819.45 1281.14 4822.25 1280.71 4825.01 1278.04 4825.15 1275.37 4825.15 1272.7 4825.01 1272.07 4822.12 1272.07 4819.13 1272.7 4816.24Z" fill="#C8DB89" fill-rule="nonzero" fill-opacity="1"/><path d="M1351.21 4817C1354.18 4816.78 1357.15 4816.93 1360.08 4817.45 1360.29 4819.98 1360.19 4822.53 1359.81 4825.04 1356.95 4825.33 1354.07 4825.33 1351.21 4825.04 1351.06 4822.36 1351.06 4819.68 1351.21 4817Z" fill="#C8DB89" fill-rule="nonzero" fill-opacity="1"/><path d="M1286.45 4832.71C1286.45 4832.71 1296.18 4831.58 1296.18 4832.3 1296.2 4836.57 1296.54 4840.83 1297.18 4845.05 1297.76 4845.05 1332.86 4844.77 1332.99 4844.05 1333.13 4843.33 1333.72 4832.88 1334.13 4832.47 1336.97 4831.96 1339.88 4831.96 1342.72 4832.47 1342.72 4833.05 1342.31 4840.79 1343 4840.92 1343.68 4841.06 1367.64 4841.78 1367.92 4842.37 1368.19 4842.95 1367.33 4874.03 1367.33 4874.03 1367.33 4874.03 1362.04 4868.29 1361.59 4868.87 1361.15 4869.46 1359.88 4871.17 1360.46 4871.45 1362.97 4873.52 1365.27 4875.82 1367.33 4878.33 1367.47 4880.24 1367.47 4882.15 1367.33 4884.07 1364.68 4881.58 1361.86 4879.28 1358.88 4877.19 1358.6 4877.64 1357.74 4879.49 1358.16 4879.91 1358.57 4880.32 1367.33 4888.5 1367.33 4889.08 1367.33 4889.67 1367.33 4894.1 1367.33 4894.1 1364.53 4891.9 1361.62 4889.85 1358.6 4887.95 1358.19 4887.95 1357.02 4890.98 1357.61 4891.11 1361.02 4892.81 1364.23 4894.87 1367.2 4897.27 1367.2 4898.12 1367.47 4902.28 1367.47 4902.28 1367.47 4902.28 1358.22 4896.06 1357.81 4896.06 1357.4 4896.06 1357.09 4899.09 1357.09 4899.09 1360.7 4901.32 1364.15 4903.82 1367.4 4906.55 1367.49 4907.98 1367.49 4909.41 1367.4 4910.84 1364.61 4908.74 1361.64 4906.88 1358.53 4905.27 1358.12 4905.72 1357.26 4907.58 1357.95 4907.85 1358.64 4908.13 1364.41 4912.73 1363.83 4912.87 1360.7 4913.31 1357.53 4913.41 1354.38 4913.15 1354.38 4912.56 1354.38 4900.84 1353.79 4900.7 1353.21 4900.57 1326.02 4899.98 1319.69 4900.29 1313.37 4900.6 1286.62 4902.01 1286.18 4903.01 1285.73 4904 1286.62 4912.46 1286.18 4912.46 1281.24 4912.37 1276.32 4911.99 1271.43 4911.33 1271.02 4910.74 1269.71 4846.87 1271.02 4846.46 1272.32 4846.05 1286.62 4845.6 1286.62 4845.19 1286.62 4844.77 1286.59 4833.12 1286.45 4832.71Z" fill="#8EC480" fill-rule="nonzero" fill-opacity="1"/><path d="M1284.32 4857.05C1290.8 4855.92 1297.4 4855.68 1303.95 4856.33 1304.59 4862.89 1304.74 4869.5 1304.39 4876.09 1297.87 4876.74 1291.31 4876.89 1284.77 4876.54 1284.19 4870.06 1284.04 4863.55 1284.32 4857.05Z" fill="#1D1D1B" fill-rule="nonzero" fill-opacity="1"/><path d="M1291.06 4862.34C1293.22 4861.76 1295.49 4861.76 1297.66 4862.34 1297.66 4862.79 1298.65 4869.8 1297.66 4870.21 1295.41 4870.81 1293.07 4870.9 1290.78 4870.49 1290.66 4867.77 1290.75 4865.04 1291.06 4862.34Z" fill="#FAB900" fill-rule="nonzero" fill-opacity="1"/><path d="M1331.28 4855.77C1337.77 4854.65 1344.38 4854.41 1350.94 4855.05 1351.58 4861.62 1351.73 4868.23 1351.38 4874.82 1344.86 4875.47 1338.3 4875.62 1331.76 4875.27 1331.17 4868.79 1331.01 4862.28 1331.28 4855.77Z" fill="#1D1D1B" fill-rule="nonzero" fill-opacity="1"/><path d="M1338.01 4861.07C1340.17 4860.49 1342.45 4860.49 1344.61 4861.07 1344.61 4861.52 1345.61 4868.53 1344.61 4868.94 1342.37 4869.54 1340.02 4869.63 1337.74 4869.22 1337.61 4866.5 1337.71 4863.77 1338.01 4861.07Z" fill="#FAB900" fill-rule="nonzero" fill-opacity="1"/><path d="M1275.31 4851.03C1275.31 4851.89 1278.75 4850.31 1278.75 4851.03 1278.75 4851.75 1279.47 4865.06 1279.03 4865.37 1278.58 4865.67 1275.59 4866.09 1275.59 4865.37 1275.59 4864.64 1275.31 4850.76 1275.31 4851.03Z" fill="#1D1D1B" fill-rule="nonzero" fill-opacity="1"/><path d="M1375 4860.48C1375.41 4860.07 1381.88 4859.62 1381.88 4860.76 1381.88 4861.89 1381.88 4880.66 1381.15 4880.66 1378.77 4880.79 1376.37 4880.7 1374 4880.39 1373.83 4879.98 1374.55 4860.79 1375 4860.48Z" fill="#C8DB89" fill-rule="nonzero" fill-opacity="1"/><path d="M1390.02 4874.82C1390.71 4874.58 1396.31 4874.41 1396.48 4875.09 1396.66 4875.78 1394.63 4910.91 1394.04 4911.19 1392.62 4911.34 1391.18 4911.34 1389.75 4911.19 1389.75 4911.19 1389.57 4874.96 1390.02 4874.82Z" fill="#C8DB89" fill-rule="nonzero" fill-opacity="1"/><path d="M1291.92 4919.92C1298.46 4919.63 1305.02 4919.78 1311.54 4920.37 1311.54 4920.95 1311.54 4928.1 1311.54 4928.1L1291.92 4927.69C1291.63 4925.11 1291.63 4922.5 1291.92 4919.92Z" fill="#C8DB89" fill-rule="nonzero" fill-opacity="1"/><path d="M1327.29 4920.64C1334.14 4920.02 1341.03 4919.78 1347.91 4919.92 1347.91 4920.5 1348.5 4926.21 1347.91 4926.52 1347.33 4926.83 1326.88 4927 1326.88 4927 1326.88 4927 1326.88 4920.78 1327.29 4920.64Z" fill="#C8DB89" fill-rule="nonzero" fill-opacity="1"/></g></g></g></g></g></svg>